<svg xmlns="http://www.w3.org/2000/svg" xmlns:xlink="http://www.w3.org/1999/xlink" width="500" zoomAndPan="magnify" viewBox="0 0 375 374.999991" height="500" preserveAspectRatio="xMidYMid meet" version="1.0"><defs><g/><clipPath id="c18706aeff"><path d="M 139 184 L 300 184 L 300 251 L 139 251 Z M 139 184 " clip-rule="nonzero"/></clipPath><clipPath id="d60a5dcae7"><path d="M 141.550781 183.261719 L 302.554688 201.171875 L 296.75 253.351562 L 135.746094 235.4375 Z M 141.550781 183.261719 " clip-rule="nonzero"/></clipPath><clipPath id="5affcbde61"><path d="M 302.601562 201.175781 L 141.597656 183.265625 L 135.792969 235.441406 L 296.796875 253.355469 Z M 302.601562 201.175781 " clip-rule="nonzero"/></clipPath><clipPath id="07e727fe04"><path d="M 98 101 L 238 101 L 238 206 L 98 206 Z M 98 101 " clip-rule="nonzero"/></clipPath><clipPath id="054bac8269"><path d="M 237.78125 141.464844 L 108.078125 212.222656 L 86.527344 172.71875 L 216.230469 101.957031 Z M 237.78125 141.464844 " clip-rule="nonzero"/></clipPath><clipPath id="32ae578af6"><path d="M 251.832031 133.796875 L 108.300781 212.097656 L 83.160156 166.011719 L 226.691406 87.710938 Z M 251.832031 133.796875 " clip-rule="nonzero"/></clipPath><clipPath id="be168aac53"><path d="M 295 157.574219 L 319 157.574219 L 319 196.574219 L 295 196.574219 Z M 295 157.574219 " clip-rule="nonzero"/></clipPath><clipPath id="d7fe53c4a3"><path d="M 329.265625 141.726562 L 337.195312 141.726562 L 337.195312 152.054688 L 329.265625 152.054688 Z M 329.265625 141.726562 " clip-rule="nonzero"/></clipPath><clipPath id="7d1d844210"><path d="M 320 140.726562 L 328 140.726562 L 328 149 L 320 149 Z M 320 140.726562 " clip-rule="nonzero"/></clipPath><clipPath id="f970f23249"><path d="M 318.046875 158.207031 L 320.78125 158.207031 L 320.78125 160.976562 L 318.046875 160.976562 Z M 318.046875 158.207031 " clip-rule="nonzero"/></clipPath><clipPath id="df7e650617"><path d="M 314.695312 151 L 321 151 L 321 159 L 314.695312 159 Z M 314.695312 151 " clip-rule="nonzero"/></clipPath><clipPath id="29c9fe1408"><path d="M 117 140.726562 L 119 140.726562 L 119 145 L 117 145 Z M 117 140.726562 " clip-rule="nonzero"/></clipPath><clipPath id="b97863629f"><path d="M 105.929688 151 L 110 151 L 110 154 L 105.929688 154 Z M 105.929688 151 " clip-rule="nonzero"/></clipPath><clipPath id="6518121698"><path d="M 126.316406 151.96875 L 129.929688 151.96875 L 129.929688 153.621094 L 126.316406 153.621094 Z M 126.316406 151.96875 " clip-rule="nonzero"/></clipPath></defs><g fill="#ffffff" fill-opacity="1"><g transform="translate(35.274527, 223.874985)"><g><path d="M 37.234375 14.53125 L 37.234375 -29.390625 C 37.234375 -30.847656 36.707031 -32.097656 35.65625 -33.140625 C 34.613281 -34.191406 33.359375 -34.71875 31.890625 -34.71875 C 30.359375 -34.71875 29.085938 -34.191406 28.078125 -33.140625 C 27.066406 -32.097656 26.5625 -30.847656 26.5625 -29.390625 C 26.5625 -27.921875 27.066406 -26.660156 28.078125 -25.609375 C 29.085938 -24.566406 30.359375 -24.046875 31.890625 -24.046875 L 35.65625 -24.046875 L 35.65625 1.671875 L 31.890625 1.671875 C 27.640625 1.671875 23.628906 0.867188 19.859375 -0.734375 C 16.097656 -2.335938 12.785156 -4.566406 9.921875 -7.421875 C 7.066406 -10.285156 4.835938 -13.597656 3.234375 -17.359375 C 1.640625 -21.117188 0.84375 -25.128906 0.84375 -29.390625 C 0.84375 -33.710938 1.640625 -37.738281 3.234375 -41.46875 C 4.835938 -45.195312 7.066406 -48.488281 9.921875 -51.34375 C 12.785156 -54.207031 16.097656 -56.441406 19.859375 -58.046875 C 23.628906 -59.648438 27.640625 -60.453125 31.890625 -60.453125 C 36.210938 -60.453125 40.238281 -59.648438 43.96875 -58.046875 C 47.695312 -56.441406 50.972656 -54.207031 53.796875 -51.34375 C 56.628906 -48.488281 58.84375 -45.195312 60.4375 -41.46875 C 62.039062 -37.738281 62.84375 -33.710938 62.84375 -29.390625 L 62.84375 14.53125 Z M 37.234375 14.53125 "/></g></g></g><g fill="#ffffff" fill-opacity="1"><g transform="translate(99.067152, 223.874985)"><g><path d="M 36.078125 -58.671875 L 62.015625 -58.671875 L 62.015625 -28.65625 C 62.015625 -23.632812 61.160156 -19.222656 59.453125 -15.421875 C 57.742188 -11.617188 55.425781 -8.445312 52.5 -5.90625 C 49.570312 -3.363281 46.296875 -1.460938 42.671875 -0.203125 C 39.046875 1.046875 35.347656 1.671875 31.578125 1.671875 C 27.742188 1.671875 24.015625 1.046875 20.390625 -0.203125 C 16.765625 -1.460938 13.488281 -3.363281 10.5625 -5.90625 C 7.632812 -8.445312 5.316406 -11.617188 3.609375 -15.421875 C 1.898438 -19.222656 1.046875 -23.632812 1.046875 -28.65625 L 1.046875 -58.671875 L 26.984375 -58.671875 L 26.984375 -29.703125 C 26.984375 -27.890625 27.46875 -26.53125 28.4375 -25.625 C 29.414062 -24.71875 30.460938 -24.265625 31.578125 -24.265625 C 32.691406 -24.265625 33.71875 -24.71875 34.65625 -25.625 C 35.601562 -26.53125 36.078125 -27.890625 36.078125 -29.703125 Z M 36.078125 -58.671875 "/></g></g></g><g fill="#ffffff" fill-opacity="1"><g transform="translate(162.127733, 223.874985)"><g><path d="M 34.296875 -26.453125 C 35.835938 -27.296875 36.742188 -28.460938 37.015625 -29.953125 C 37.296875 -31.453125 36.960938 -32.8125 36.015625 -34.03125 C 35.078125 -35.257812 33.53125 -35.875 31.375 -35.875 C 29.5625 -35.9375 28.179688 -35.425781 27.234375 -34.34375 C 26.296875 -33.269531 25.804688 -32.015625 25.765625 -30.578125 C 25.734375 -29.148438 26.15625 -27.878906 27.03125 -26.765625 C 27.90625 -25.648438 29.285156 -25.09375 31.171875 -25.09375 L 60.765625 -25.09375 L 60.765625 0 L 31.171875 0 C 26.984375 0 23.078125 -0.78125 19.453125 -2.34375 C 15.828125 -3.914062 12.617188 -6.097656 9.828125 -8.890625 C 7.035156 -11.679688 4.851562 -14.890625 3.28125 -18.515625 C 1.71875 -22.140625 0.9375 -26.039062 0.9375 -30.21875 C 0.9375 -35.726562 2.171875 -40.75 4.640625 -45.28125 C 7.117188 -49.8125 10.640625 -53.453125 15.203125 -56.203125 C 19.773438 -58.960938 25.203125 -60.378906 31.484375 -60.453125 C 34.753906 -60.453125 38.046875 -60.132812 41.359375 -59.5 C 44.671875 -58.875 47.789062 -57.6875 50.71875 -55.9375 C 53.644531 -54.195312 56.085938 -51.617188 58.046875 -48.203125 C 58.878906 -46.742188 59.488281 -45.003906 59.875 -42.984375 C 60.257812 -40.960938 60.394531 -38.882812 60.28125 -36.75 C 60.175781 -34.625 59.738281 -32.640625 58.96875 -30.796875 C 58.207031 -28.953125 57.023438 -27.503906 55.421875 -26.453125 Z M 34.296875 -26.453125 "/></g></g></g><g fill="#ffffff" fill-opacity="1"><g transform="translate(223.828791, 223.874985)"><g><path d="M 38.28125 -58.671875 L 38.28125 -34.09375 L 28.34375 -34.09375 C 27.289062 -34.09375 26.765625 -33.570312 26.765625 -32.53125 L 26.765625 0 L 1.046875 0 L 1.046875 -31.484375 C 1.046875 -36.984375 2.226562 -41.753906 4.59375 -45.796875 C 6.96875 -49.847656 10.265625 -53.003906 14.484375 -55.265625 C 18.703125 -57.535156 23.53125 -58.671875 28.96875 -58.671875 Z M 38.28125 -58.671875 "/></g></g></g><g fill="#ffffff" fill-opacity="1"><g transform="translate(263.045562, 223.874985)"><g><path d="M 46.125 14.53125 L 20.1875 14.53125 L 25.9375 -0.203125 L 25.203125 -0.203125 L 0.515625 -58.671875 L 28.03125 -58.671875 L 41.515625 -22.0625 L 43.09375 -22.0625 L 39.421875 -32 L 48.53125 -58.671875 L 76.125 -58.671875 Z M 46.125 14.53125 "/></g></g></g><g clip-path="url(#c18706aeff)"><g clip-path="url(#d60a5dcae7)"><g clip-path="url(#5affcbde61)"><path fill="#262730" d="M 139.722656 199.664062 C 140.585938 191.917969 147.167969 186.039062 155.386719 184.898438 C 155.570312 184.875 155.621094 185.136719 155.445312 185.183594 C 150.574219 186.570312 146.875 189.667969 145.753906 193.941406 C 145.054688 196.613281 145.460938 199.378906 146.730469 201.957031 C 149.292969 205.867188 157.757812 214.003906 184.214844 215.515625 C 219.289062 217.523438 234.0625 206.136719 263.832031 208.972656 C 293.601562 211.8125 299.421875 229.753906 299.421875 229.753906 L 276.824219 250.953125 C 276.824219 250.953125 264.664062 231.390625 220.5625 233.828125 C 176.464844 236.265625 154.597656 223.992188 145.691406 214.445312 C 144.492188 213.160156 143.546875 211.953125 142.804688 210.816406 C 140.460938 207.605469 139.273438 203.710938 139.722656 199.664062 " fill-opacity="1" fill-rule="nonzero"/></g></g></g><g clip-path="url(#07e727fe04)"><g clip-path="url(#054bac8269)"><g clip-path="url(#32ae578af6)"><path fill="#262730" d="M 100.40625 197.453125 C 104.167969 204.351562 112.554688 207.324219 120.664062 205.246094 C 120.84375 205.199219 120.792969 204.9375 120.609375 204.957031 C 115.535156 205.527344 110.898438 204.046875 108.21875 200.488281 C 106.542969 198.261719 105.867188 195.527344 106.066406 192.636719 C 106.964844 188.007812 111.757812 177.179688 135.867188 165.65625 C 167.835938 150.382812 185.972656 155.363281 212.671875 141.339844 C 239.371094 127.316406 237.949219 108.347656 237.949219 108.347656 L 208.757812 97.199219 C 208.757812 97.199219 204.882812 120.101562 162.792969 134.675781 C 120.707031 149.253906 104.988281 169.066406 100.324219 181.375 C 99.695312 183.035156 99.277344 184.523438 99.019531 185.863281 C 98.058594 189.757812 98.4375 193.84375 100.40625 197.453125 " fill-opacity="1" fill-rule="nonzero"/></g></g></g><g clip-path="url(#be168aac53)"><path fill="#262730" d="M 318.113281 177.066406 C 308.195312 178.332031 307.605469 179.355469 306.878906 196.5625 C 306.148438 179.355469 305.558594 178.332031 295.644531 177.066406 C 305.558594 175.804688 306.148438 174.78125 306.878906 157.574219 C 307.605469 174.78125 308.195312 175.804688 318.113281 177.066406 Z M 318.113281 177.066406 " fill-opacity="1" fill-rule="nonzero"/></g><path fill="#262730" d="M 305.289062 176.167969 C 292.832031 182.441406 283.921875 189.890625 285.390625 192.804688 C 286.859375 195.71875 298.144531 192.996094 310.605469 186.722656 C 323.0625 180.445312 331.972656 173 330.503906 170.085938 C 329.035156 167.171875 317.746094 169.898438 305.289062 176.167969 Z M 310.320312 186.15625 C 301.378906 190.660156 293.070312 192.199219 291.757812 189.597656 C 290.449219 186.996094 296.632812 181.234375 305.574219 176.734375 C 314.515625 172.234375 322.824219 170.691406 324.136719 173.292969 C 325.445312 175.894531 319.261719 181.65625 310.320312 186.15625 Z M 310.320312 186.15625 " fill-opacity="1" fill-rule="nonzero"/><path fill="#ffffff" d="M 329.703125 156.5625 C 330.808594 156.890625 331.972656 156.261719 332.300781 155.15625 L 332.347656 154.988281 C 332.675781 153.882812 332.046875 152.71875 330.941406 152.390625 C 329.835938 152.0625 328.671875 152.695312 328.347656 153.800781 L 328.296875 153.96875 C 327.96875 155.074219 328.597656 156.234375 329.703125 156.5625 " fill-opacity="1" fill-rule="nonzero"/><g clip-path="url(#d7fe53c4a3)"><path fill="#ffffff" d="M 334.109375 142.054688 C 332.1875 141.484375 330.882812 141.730469 329.984375 142.429688 C 328.863281 143.296875 329.203125 145.070312 330.5625 145.472656 L 330.664062 145.503906 C 331.382812 145.714844 332.136719 145.417969 332.558594 144.796875 C 332.691406 144.605469 332.835938 144.527344 333.015625 144.582031 C 333.332031 144.675781 333.402344 144.902344 333.226562 145.488281 C 333.015625 146.203125 332.71875 146.589844 331.96875 147.121094 C 330.59375 148.058594 329.832031 148.792969 329.410156 150.214844 L 329.304688 150.574219 C 329.246094 150.769531 329.355469 150.976562 329.554688 151.035156 L 332.84375 152.011719 C 333.042969 152.070312 333.246094 151.957031 333.304688 151.757812 C 333.5 151.109375 333.804688 150.699219 334.902344 149.839844 C 336.128906 148.925781 336.828125 148.496094 337.28125 146.964844 C 337.867188 144.996094 337.335938 143.011719 334.109375 142.054688 " fill-opacity="1" fill-rule="nonzero"/></g><path fill="#ffffff" d="M 323.613281 152.597656 C 324.515625 152.601562 325.25 151.875 325.253906 150.972656 L 325.253906 150.835938 C 325.257812 149.933594 324.53125 149.199219 323.628906 149.195312 C 322.726562 149.191406 321.992188 149.917969 321.988281 150.820312 L 321.988281 150.957031 C 321.984375 151.859375 322.710938 152.59375 323.613281 152.597656 " fill-opacity="1" fill-rule="nonzero"/><g clip-path="url(#7d1d844210)"><path fill="#ffffff" d="M 323.75 140.738281 C 322.183594 140.730469 321.257812 141.199219 320.734375 141.917969 C 320.082031 142.816406 320.726562 144.074219 321.835938 144.082031 L 321.917969 144.082031 C 322.503906 144.085938 323.003906 143.695312 323.1875 143.136719 C 323.242188 142.964844 323.335938 142.875 323.484375 142.875 C 323.738281 142.875 323.839844 143.03125 323.839844 143.511719 C 323.835938 144.089844 323.699219 144.449219 323.25 145.011719 C 322.421875 146.015625 322.007812 146.730469 322.003906 147.894531 L 322 148.1875 C 322 148.347656 322.128906 148.476562 322.289062 148.476562 L 324.976562 148.492188 C 325.136719 148.492188 325.265625 148.363281 325.269531 148.203125 C 325.269531 147.671875 325.410156 147.296875 326.046875 146.410156 C 326.769531 145.457031 327.199219 144.980469 327.207031 143.734375 C 327.214844 142.125 326.382812 140.753906 323.75 140.738281 " fill-opacity="1" fill-rule="nonzero"/></g><g clip-path="url(#f970f23249)"><path fill="#ffffff" d="M 319.824219 160.925781 C 320.523438 160.707031 320.914062 159.964844 320.695312 159.265625 L 320.660156 159.160156 C 320.441406 158.464844 319.703125 158.074219 319.003906 158.292969 C 318.304688 158.511719 317.917969 159.253906 318.136719 159.949219 L 318.167969 160.054688 C 318.386719 160.753906 319.128906 161.140625 319.824219 160.925781 " fill-opacity="1" fill-rule="nonzero"/></g><g clip-path="url(#df7e650617)"><path fill="#ffffff" d="M 317.019531 151.734375 C 315.808594 152.113281 315.207031 152.703125 314.980469 153.390625 C 314.699219 154.242188 315.503906 155.054688 316.363281 154.785156 L 316.425781 154.765625 C 316.878906 154.625 317.171875 154.199219 317.171875 153.726562 C 317.175781 153.578125 317.222656 153.488281 317.339844 153.449219 C 317.535156 153.390625 317.652344 153.484375 317.769531 153.851562 C 317.910156 154.304688 317.890625 154.613281 317.683594 155.15625 C 317.292969 156.136719 317.148438 156.789062 317.429688 157.691406 L 317.5 157.914062 C 317.539062 158.039062 317.671875 158.109375 317.792969 158.070312 L 319.871094 157.421875 C 319.996094 157.382812 320.0625 157.25 320.023438 157.125 C 319.898438 156.714844 319.910156 156.390625 320.1875 155.550781 C 320.511719 154.636719 320.726562 154.164062 320.421875 153.199219 C 320.035156 151.957031 319.058594 151.101562 317.019531 151.734375 " fill-opacity="1" fill-rule="nonzero"/></g><path fill="#ffffff" d="M 124.46875 147.417969 L 126.496094 145.390625 C 126.808594 145.078125 126.808594 144.570312 126.496094 144.257812 C 126.183594 143.945312 125.675781 143.945312 125.359375 144.257812 L 123.363281 146.253906 C 123.765625 146.605469 124.132812 146.996094 124.46875 147.417969 " fill-opacity="1" fill-rule="nonzero"/><g clip-path="url(#29c9fe1408)"><path fill="#ffffff" d="M 117.976562 144.207031 C 117.984375 144.207031 117.992188 144.207031 118 144.207031 C 118.265625 144.207031 118.523438 144.226562 118.78125 144.253906 L 118.78125 141.53125 C 118.78125 141.089844 118.421875 140.730469 117.976562 140.730469 C 117.535156 140.730469 117.175781 141.089844 117.175781 141.53125 L 117.175781 144.253906 C 117.429688 144.226562 117.691406 144.207031 117.953125 144.207031 C 117.960938 144.207031 117.96875 144.207031 117.976562 144.207031 " fill-opacity="1" fill-rule="nonzero"/></g><path fill="#ffffff" d="M 111.484375 147.417969 C 111.820312 146.996094 112.1875 146.605469 112.589844 146.253906 L 110.59375 144.257812 C 110.28125 143.945312 109.773438 143.945312 109.457031 144.257812 C 109.144531 144.570312 109.144531 145.078125 109.457031 145.390625 L 111.484375 147.417969 " fill-opacity="1" fill-rule="nonzero"/><g clip-path="url(#b97863629f)"><path fill="#ffffff" d="M 109.511719 153.117188 C 109.511719 152.726562 109.542969 152.347656 109.589844 151.972656 L 106.734375 151.972656 C 106.289062 151.972656 105.929688 152.332031 105.929688 152.777344 C 105.929688 153.21875 106.289062 153.578125 106.734375 153.578125 L 109.519531 153.578125 C 109.515625 153.425781 109.511719 153.273438 109.511719 153.117188 " fill-opacity="1" fill-rule="nonzero"/></g><path fill="#ffffff" d="M 109.457031 160.160156 C 109.144531 160.472656 109.144531 160.980469 109.457031 161.292969 C 109.773438 161.609375 110.28125 161.609375 110.59375 161.292969 L 112.066406 159.824219 C 111.734375 159.449219 111.386719 159.035156 111.0625 158.554688 L 109.457031 160.160156 " fill-opacity="1" fill-rule="nonzero"/><path fill="#ffffff" d="M 118.335938 168.101562 L 116.230469 168.101562 C 116.226562 168.128906 116.222656 168.148438 116.222656 168.171875 C 116.222656 168.597656 116.875 168.9375 117.476562 168.9375 L 118.476562 168.9375 C 119.078125 168.9375 119.730469 168.597656 119.730469 168.171875 C 119.730469 168.148438 119.726562 168.128906 119.726562 168.101562 L 118.335938 168.101562 " fill-opacity="1" fill-rule="nonzero"/><path fill="#ffffff" d="M 120.023438 166.152344 L 115.933594 166.152344 C 115.507812 166.152344 115.167969 166.496094 115.167969 166.917969 C 115.167969 167.339844 115.507812 167.6875 115.933594 167.6875 L 120.023438 167.6875 C 120.445312 167.6875 120.789062 167.339844 120.789062 166.917969 C 120.789062 166.496094 120.445312 166.152344 120.023438 166.152344 " fill-opacity="1" fill-rule="nonzero"/><path fill="#ffffff" d="M 120.023438 164.21875 L 115.933594 164.21875 C 115.507812 164.21875 115.167969 164.558594 115.167969 164.984375 C 115.167969 165.40625 115.507812 165.75 115.933594 165.75 L 120.023438 165.75 C 120.445312 165.75 120.789062 165.40625 120.789062 164.984375 C 120.789062 164.558594 120.445312 164.21875 120.023438 164.21875 " fill-opacity="1" fill-rule="nonzero"/><path fill="#ffffff" d="M 117.566406 148.925781 C 116.636719 148.960938 116.003906 149.214844 115.523438 149.558594 C 115.042969 149.902344 114.703125 150.363281 114.464844 150.855469 C 113.980469 151.832031 113.9375 152.917969 113.941406 152.988281 L 113.941406 152.992188 C 113.941406 153.449219 113.570312 153.820312 113.113281 153.820312 C 112.65625 153.820312 112.28125 153.449219 112.28125 152.992188 C 112.28125 152.957031 112.285156 152.535156 112.394531 151.925781 C 112.507812 151.320312 112.722656 150.519531 113.183594 149.730469 C 113.492188 149.210938 113.914062 148.691406 114.480469 148.265625 C 115.238281 147.695312 116.253906 147.308594 117.507812 147.269531 C 117.964844 147.253906 118.347656 147.613281 118.363281 148.070312 C 118.382812 148.527344 118.023438 148.910156 117.566406 148.925781 Z M 125.328125 153.117188 C 125.328125 151.449219 124.773438 149.910156 123.839844 148.675781 C 123.019531 147.59375 121.90625 146.742188 120.617188 146.242188 L 120.621094 146.207031 L 120.070312 146.046875 C 119.644531 145.921875 119.203125 145.835938 118.753906 145.789062 L 118.6875 145.78125 L 118.683594 145.78125 C 118.464844 145.761719 118.234375 145.746094 117.996094 145.746094 L 117.960938 145.746094 C 117.71875 145.746094 117.492188 145.761719 117.269531 145.78125 L 117.265625 145.78125 L 117.199219 145.789062 C 116.75 145.835938 116.308594 145.921875 115.882812 146.046875 L 115.347656 146.203125 L 115.355469 146.238281 C 114.058594 146.734375 112.9375 147.589844 112.113281 148.675781 C 111.179688 149.910156 110.625 151.449219 110.625 153.117188 C 110.625 154.308594 110.832031 155.292969 111.152344 156.105469 C 111.632812 157.324219 112.371094 158.148438 112.960938 158.769531 C 113.257812 159.082031 113.519531 159.347656 113.695312 159.574219 C 113.875 159.804688 113.960938 159.980469 113.988281 160.121094 C 114.117188 160.804688 114.132812 161.664062 114.132812 161.882812 L 114.128906 161.925781 L 114.128906 161.945312 C 114.132812 162.933594 114.929688 163.726562 115.914062 163.726562 L 120.039062 163.726562 C 121.027344 163.726562 121.824219 162.929688 121.824219 161.945312 L 121.824219 161.882812 C 121.824219 161.667969 121.835938 160.804688 121.964844 160.121094 C 121.984375 160.027344 122.027344 159.917969 122.109375 159.789062 C 122.25 159.558594 122.515625 159.269531 122.847656 158.921875 C 123.339844 158.402344 123.972656 157.75 124.46875 156.816406 C 124.972656 155.886719 125.332031 154.683594 125.328125 153.117188 " fill-opacity="1" fill-rule="nonzero"/><path fill="#ffffff" d="M 124.894531 158.554688 C 124.566406 159.035156 124.222656 159.449219 123.890625 159.824219 L 125.359375 161.292969 C 125.675781 161.609375 126.183594 161.609375 126.496094 161.292969 C 126.808594 160.980469 126.808594 160.472656 126.496094 160.160156 L 124.894531 158.554688 " fill-opacity="1" fill-rule="nonzero"/><g clip-path="url(#6518121698)"><path fill="#ffffff" d="M 129.222656 151.972656 L 126.367188 151.972656 C 126.414062 152.347656 126.441406 152.726562 126.441406 153.117188 C 126.441406 153.273438 126.4375 153.425781 126.433594 153.578125 L 129.222656 153.578125 C 129.664062 153.578125 130.023438 153.21875 130.023438 152.777344 C 130.023438 152.332031 129.664062 151.972656 129.222656 151.972656 " fill-opacity="1" fill-rule="nonzero"/></g><g fill="#ffffff" fill-opacity="1"><g transform="translate(216.832766, 225.141129)"><g><path d="M 2.046875 0.09375 C 1.691406 0.09375 1.359375 0.046875 1.046875 -0.046875 C 0.734375 -0.148438 0.476562 -0.304688 0.28125 -0.515625 C 0.0820312 -0.734375 -0.0195312 -1.019531 -0.03125 -1.375 L 1.421875 -1.375 C 1.421875 -1.238281 1.492188 -1.140625 1.640625 -1.078125 C 1.785156 -1.015625 1.941406 -0.984375 2.109375 -0.984375 C 2.265625 -0.984375 2.398438 -1.003906 2.515625 -1.046875 C 2.628906 -1.097656 2.6875 -1.171875 2.6875 -1.265625 C 2.6875 -1.367188 2.609375 -1.429688 2.453125 -1.453125 C 2.304688 -1.484375 2.117188 -1.507812 1.890625 -1.53125 C 1.691406 -1.550781 1.484375 -1.578125 1.265625 -1.609375 C 1.046875 -1.640625 0.835938 -1.691406 0.640625 -1.765625 C 0.453125 -1.835938 0.300781 -1.953125 0.1875 -2.109375 C 0.0703125 -2.265625 0.0195312 -2.472656 0.03125 -2.734375 C 0.03125 -2.992188 0.09375 -3.210938 0.21875 -3.390625 C 0.34375 -3.578125 0.503906 -3.722656 0.703125 -3.828125 C 0.910156 -3.941406 1.128906 -4.019531 1.359375 -4.0625 C 1.597656 -4.101562 1.828125 -4.125 2.046875 -4.125 C 2.253906 -4.125 2.472656 -4.101562 2.703125 -4.0625 C 2.941406 -4.03125 3.160156 -3.960938 3.359375 -3.859375 C 3.566406 -3.765625 3.734375 -3.625 3.859375 -3.4375 C 3.984375 -3.257812 4.046875 -3.019531 4.046875 -2.71875 L 2.640625 -2.71875 C 2.640625 -2.820312 2.578125 -2.898438 2.453125 -2.953125 C 2.328125 -3.015625 2.191406 -3.046875 2.046875 -3.046875 C 1.910156 -3.046875 1.785156 -3.019531 1.671875 -2.96875 C 1.554688 -2.914062 1.5 -2.84375 1.5 -2.75 C 1.5 -2.664062 1.5625 -2.609375 1.6875 -2.578125 C 1.820312 -2.554688 1.96875 -2.546875 2.125 -2.546875 C 2.375 -2.546875 2.617188 -2.523438 2.859375 -2.484375 C 3.097656 -2.453125 3.316406 -2.390625 3.515625 -2.296875 C 3.710938 -2.210938 3.867188 -2.082031 3.984375 -1.90625 C 4.109375 -1.738281 4.171875 -1.523438 4.171875 -1.265625 C 4.171875 -0.941406 4.066406 -0.675781 3.859375 -0.46875 C 3.648438 -0.269531 3.382812 -0.125 3.0625 -0.03125 C 2.738281 0.0507812 2.398438 0.09375 2.046875 0.09375 Z M 2.046875 0.09375 "/></g></g></g><g fill="#ffffff" fill-opacity="1"><g transform="translate(221.524433, 225.141129)"><g><path d="M 0.265625 0 L 0.265625 -4.046875 L 1.46875 -4.046875 L 1.578125 -3.625 C 1.671875 -3.789062 1.804688 -3.910156 1.984375 -3.984375 C 2.171875 -4.054688 2.363281 -4.09375 2.5625 -4.09375 C 2.789062 -4.09375 3.003906 -4.046875 3.203125 -3.953125 C 3.398438 -3.859375 3.535156 -3.726562 3.609375 -3.5625 C 3.734375 -3.738281 3.90625 -3.875 4.125 -3.96875 C 4.351562 -4.0625 4.59375 -4.109375 4.84375 -4.109375 C 5.132812 -4.109375 5.421875 -4.039062 5.703125 -3.90625 C 5.984375 -3.78125 6.21875 -3.582031 6.40625 -3.3125 C 6.59375 -3.039062 6.6875 -2.6875 6.6875 -2.25 L 6.6875 0 L 5.21875 0 L 5.21875 -2.140625 C 5.21875 -2.242188 5.207031 -2.347656 5.1875 -2.453125 C 5.164062 -2.566406 5.117188 -2.660156 5.046875 -2.734375 C 4.984375 -2.804688 4.882812 -2.84375 4.75 -2.84375 C 4.5625 -2.84375 4.421875 -2.78125 4.328125 -2.65625 C 4.234375 -2.53125 4.1875 -2.359375 4.1875 -2.140625 L 4.1875 0 L 2.78125 0 L 2.78125 -2.140625 C 2.78125 -2.234375 2.765625 -2.335938 2.734375 -2.453125 C 2.710938 -2.566406 2.664062 -2.660156 2.59375 -2.734375 C 2.53125 -2.804688 2.429688 -2.84375 2.296875 -2.84375 C 2.078125 -2.84375 1.925781 -2.769531 1.84375 -2.625 C 1.769531 -2.476562 1.734375 -2.300781 1.734375 -2.09375 L 1.734375 0 Z M 0.265625 0 "/></g></g></g><g fill="#ffffff" fill-opacity="1"><g transform="translate(228.918909, 225.141129)"><g><path d="M 1.6875 0.0625 C 1.425781 0.0625 1.160156 0.0195312 0.890625 -0.0625 C 0.628906 -0.15625 0.410156 -0.300781 0.234375 -0.5 C 0.0664062 -0.707031 -0.015625 -0.988281 -0.015625 -1.34375 C -0.015625 -1.59375 0.0390625 -1.800781 0.15625 -1.96875 C 0.269531 -2.132812 0.421875 -2.265625 0.609375 -2.359375 C 0.796875 -2.453125 1 -2.519531 1.21875 -2.5625 C 1.4375 -2.601562 1.65625 -2.625 1.875 -2.625 L 2.578125 -2.625 C 2.566406 -2.757812 2.5 -2.859375 2.375 -2.921875 C 2.25 -2.992188 2.097656 -3.03125 1.921875 -3.03125 C 1.753906 -3.03125 1.578125 -3 1.390625 -2.9375 C 1.203125 -2.875 1.035156 -2.785156 0.890625 -2.671875 L 0.234375 -3.453125 C 0.429688 -3.679688 0.691406 -3.851562 1.015625 -3.96875 C 1.347656 -4.082031 1.691406 -4.140625 2.046875 -4.140625 C 2.390625 -4.140625 2.71875 -4.082031 3.03125 -3.96875 C 3.34375 -3.863281 3.597656 -3.691406 3.796875 -3.453125 C 3.992188 -3.222656 4.09375 -2.929688 4.09375 -2.578125 L 4.09375 -1 L 4.171875 0 L 3.046875 0 L 2.84375 -0.484375 C 2.726562 -0.296875 2.566406 -0.15625 2.359375 -0.0625 C 2.160156 0.0195312 1.9375 0.0625 1.6875 0.0625 Z M 1.890625 -1.078125 C 2.054688 -1.078125 2.21875 -1.125 2.375 -1.21875 C 2.539062 -1.3125 2.625 -1.453125 2.625 -1.640625 L 1.875 -1.640625 C 1.738281 -1.640625 1.632812 -1.609375 1.5625 -1.546875 C 1.5 -1.492188 1.46875 -1.429688 1.46875 -1.359375 C 1.46875 -1.285156 1.503906 -1.21875 1.578125 -1.15625 C 1.648438 -1.101562 1.753906 -1.078125 1.890625 -1.078125 Z M 1.890625 -1.078125 "/></g></g></g><g fill="#ffffff" fill-opacity="1"><g transform="translate(233.797566, 225.141129)"><g><path d="M 0.171875 0 L 0.171875 -4.046875 L 1.34375 -4.046875 L 1.5 -3.59375 C 1.613281 -3.789062 1.769531 -3.929688 1.96875 -4.015625 C 2.175781 -4.109375 2.394531 -4.15625 2.625 -4.15625 C 2.851562 -4.15625 3.078125 -4.109375 3.296875 -4.015625 C 3.515625 -3.921875 3.6875 -3.785156 3.8125 -3.609375 L 3.125 -2.546875 C 3.03125 -2.640625 2.921875 -2.707031 2.796875 -2.75 C 2.679688 -2.800781 2.566406 -2.828125 2.453125 -2.828125 C 2.242188 -2.828125 2.050781 -2.75 1.875 -2.59375 C 1.707031 -2.445312 1.625 -2.210938 1.625 -1.890625 L 1.625 0 Z M 0.171875 0 "/></g></g></g><g fill="#ffffff" fill-opacity="1"><g transform="translate(237.690291, 225.141129)"><g><path d="M 2.328125 0.0625 C 1.734375 0.0625 1.28125 -0.0859375 0.96875 -0.390625 C 0.65625 -0.691406 0.5 -1.132812 0.5 -1.71875 L 0.5 -2.890625 L -0.15625 -2.890625 L -0.15625 -4.046875 L 0.5 -4.046875 L 0.5 -5.953125 L 1.953125 -5.953125 L 1.953125 -4.046875 L 3.234375 -4.046875 L 3.234375 -2.890625 L 1.953125 -2.890625 L 1.953125 -1.71875 C 1.953125 -1.519531 2.003906 -1.382812 2.109375 -1.3125 C 2.210938 -1.238281 2.335938 -1.203125 2.484375 -1.203125 C 2.585938 -1.203125 2.691406 -1.21875 2.796875 -1.25 C 2.898438 -1.28125 2.992188 -1.3125 3.078125 -1.34375 L 3.5 -0.28125 C 3.269531 -0.144531 3.050781 -0.0507812 2.84375 0 C 2.644531 0.0390625 2.472656 0.0625 2.328125 0.0625 Z M 2.328125 0.0625 "/></g></g></g><g fill="#ffffff" fill-opacity="1"><g transform="translate(241.421531, 225.141129)"><g><path d="M 2.171875 0.078125 C 1.765625 0.078125 1.390625 -0.00390625 1.046875 -0.171875 C 0.710938 -0.347656 0.445312 -0.597656 0.25 -0.921875 C 0.0625 -1.242188 -0.03125 -1.625 -0.03125 -2.0625 C -0.03125 -2.40625 0.046875 -2.734375 0.203125 -3.046875 C 0.367188 -3.359375 0.613281 -3.613281 0.9375 -3.8125 C 1.257812 -4.019531 1.664062 -4.125 2.15625 -4.125 C 2.738281 -4.125 3.203125 -3.972656 3.546875 -3.671875 C 3.898438 -3.378906 4.125 -2.992188 4.21875 -2.515625 C 4.257812 -2.378906 4.273438 -2.21875 4.265625 -2.03125 C 4.265625 -1.851562 4.25 -1.695312 4.21875 -1.5625 L 1.4375 -1.5625 C 1.476562 -1.382812 1.570312 -1.253906 1.71875 -1.171875 C 1.863281 -1.085938 2.019531 -1.046875 2.1875 -1.046875 C 2.320312 -1.046875 2.453125 -1.070312 2.578125 -1.125 C 2.703125 -1.1875 2.796875 -1.273438 2.859375 -1.390625 L 4 -0.9375 C 3.820312 -0.5625 3.570312 -0.296875 3.25 -0.140625 C 2.925781 0.00390625 2.566406 0.078125 2.171875 0.078125 Z M 1.421875 -2.53125 L 2.875 -2.53125 C 2.832031 -2.695312 2.742188 -2.820312 2.609375 -2.90625 C 2.472656 -2.988281 2.328125 -3.03125 2.171875 -3.03125 C 2.015625 -3.03125 1.863281 -2.988281 1.71875 -2.90625 C 1.582031 -2.820312 1.484375 -2.695312 1.421875 -2.53125 Z M 1.421875 -2.53125 "/></g></g></g><g fill="#ffffff" fill-opacity="1"><g transform="translate(246.342685, 225.141129)"><g><path d="M 0.171875 0 L 0.171875 -4.046875 L 1.34375 -4.046875 L 1.5 -3.59375 C 1.613281 -3.789062 1.769531 -3.929688 1.96875 -4.015625 C 2.175781 -4.109375 2.394531 -4.15625 2.625 -4.15625 C 2.851562 -4.15625 3.078125 -4.109375 3.296875 -4.015625 C 3.515625 -3.921875 3.6875 -3.785156 3.8125 -3.609375 L 3.125 -2.546875 C 3.03125 -2.640625 2.921875 -2.707031 2.796875 -2.75 C 2.679688 -2.800781 2.566406 -2.828125 2.453125 -2.828125 C 2.242188 -2.828125 2.050781 -2.75 1.875 -2.59375 C 1.707031 -2.445312 1.625 -2.210938 1.625 -1.890625 L 1.625 0 Z M 0.171875 0 "/></g></g></g><g fill="#ffffff" fill-opacity="1"><g transform="translate(250.23541, 225.141129)"><g/></g></g><g fill="#ffffff" fill-opacity="1"><g transform="translate(252.394259, 225.141129)"><g><path d="M 1.6875 0.0625 C 1.425781 0.0625 1.160156 0.0195312 0.890625 -0.0625 C 0.628906 -0.15625 0.410156 -0.300781 0.234375 -0.5 C 0.0664062 -0.707031 -0.015625 -0.988281 -0.015625 -1.34375 C -0.015625 -1.59375 0.0390625 -1.800781 0.15625 -1.96875 C 0.269531 -2.132812 0.421875 -2.265625 0.609375 -2.359375 C 0.796875 -2.453125 1 -2.519531 1.21875 -2.5625 C 1.4375 -2.601562 1.65625 -2.625 1.875 -2.625 L 2.578125 -2.625 C 2.566406 -2.757812 2.5 -2.859375 2.375 -2.921875 C 2.25 -2.992188 2.097656 -3.03125 1.921875 -3.03125 C 1.753906 -3.03125 1.578125 -3 1.390625 -2.9375 C 1.203125 -2.875 1.035156 -2.785156 0.890625 -2.671875 L 0.234375 -3.453125 C 0.429688 -3.679688 0.691406 -3.851562 1.015625 -3.96875 C 1.347656 -4.082031 1.691406 -4.140625 2.046875 -4.140625 C 2.390625 -4.140625 2.71875 -4.082031 3.03125 -3.96875 C 3.34375 -3.863281 3.597656 -3.691406 3.796875 -3.453125 C 3.992188 -3.222656 4.09375 -2.929688 4.09375 -2.578125 L 4.09375 -1 L 4.171875 0 L 3.046875 0 L 2.84375 -0.484375 C 2.726562 -0.296875 2.566406 -0.15625 2.359375 -0.0625 C 2.160156 0.0195312 1.9375 0.0625 1.6875 0.0625 Z M 1.890625 -1.078125 C 2.054688 -1.078125 2.21875 -1.125 2.375 -1.21875 C 2.539062 -1.3125 2.625 -1.453125 2.625 -1.640625 L 1.875 -1.640625 C 1.738281 -1.640625 1.632812 -1.609375 1.5625 -1.546875 C 1.5 -1.492188 1.46875 -1.429688 1.46875 -1.359375 C 1.46875 -1.285156 1.503906 -1.21875 1.578125 -1.15625 C 1.648438 -1.101562 1.753906 -1.078125 1.890625 -1.078125 Z M 1.890625 -1.078125 "/></g></g></g><g fill="#ffffff" fill-opacity="1"><g transform="translate(257.272918, 225.141129)"><g><path d="M 0.203125 0 L 0.203125 -4.046875 L 1.515625 -4.046875 L 1.671875 -3.640625 C 1.785156 -3.816406 1.9375 -3.9375 2.125 -4 C 2.3125 -4.070312 2.507812 -4.109375 2.71875 -4.109375 C 3.132812 -4.109375 3.460938 -4.019531 3.703125 -3.84375 C 3.953125 -3.675781 4.128906 -3.441406 4.234375 -3.140625 C 4.335938 -2.847656 4.390625 -2.515625 4.390625 -2.140625 L 4.390625 0 L 2.921875 0 L 2.921875 -2.15625 C 2.929688 -2.4375 2.875 -2.617188 2.75 -2.703125 C 2.625 -2.785156 2.488281 -2.832031 2.34375 -2.84375 C 2.175781 -2.832031 2.019531 -2.769531 1.875 -2.65625 C 1.738281 -2.550781 1.671875 -2.359375 1.671875 -2.078125 L 1.671875 0 Z M 0.203125 0 "/></g></g></g><g fill="#ffffff" fill-opacity="1"><g transform="translate(262.46605, 225.141129)"><g><path d="M 2.046875 0.09375 C 1.691406 0.09375 1.359375 0.046875 1.046875 -0.046875 C 0.734375 -0.148438 0.476562 -0.304688 0.28125 -0.515625 C 0.0820312 -0.734375 -0.0195312 -1.019531 -0.03125 -1.375 L 1.421875 -1.375 C 1.421875 -1.238281 1.492188 -1.140625 1.640625 -1.078125 C 1.785156 -1.015625 1.941406 -0.984375 2.109375 -0.984375 C 2.265625 -0.984375 2.398438 -1.003906 2.515625 -1.046875 C 2.628906 -1.097656 2.6875 -1.171875 2.6875 -1.265625 C 2.6875 -1.367188 2.609375 -1.429688 2.453125 -1.453125 C 2.304688 -1.484375 2.117188 -1.507812 1.890625 -1.53125 C 1.691406 -1.550781 1.484375 -1.578125 1.265625 -1.609375 C 1.046875 -1.640625 0.835938 -1.691406 0.640625 -1.765625 C 0.453125 -1.835938 0.300781 -1.953125 0.1875 -2.109375 C 0.0703125 -2.265625 0.0195312 -2.472656 0.03125 -2.734375 C 0.03125 -2.992188 0.09375 -3.210938 0.21875 -3.390625 C 0.34375 -3.578125 0.503906 -3.722656 0.703125 -3.828125 C 0.910156 -3.941406 1.128906 -4.019531 1.359375 -4.0625 C 1.597656 -4.101562 1.828125 -4.125 2.046875 -4.125 C 2.253906 -4.125 2.472656 -4.101562 2.703125 -4.0625 C 2.941406 -4.03125 3.160156 -3.960938 3.359375 -3.859375 C 3.566406 -3.765625 3.734375 -3.625 3.859375 -3.4375 C 3.984375 -3.257812 4.046875 -3.019531 4.046875 -2.71875 L 2.640625 -2.71875 C 2.640625 -2.820312 2.578125 -2.898438 2.453125 -2.953125 C 2.328125 -3.015625 2.191406 -3.046875 2.046875 -3.046875 C 1.910156 -3.046875 1.785156 -3.019531 1.671875 -2.96875 C 1.554688 -2.914062 1.5 -2.84375 1.5 -2.75 C 1.5 -2.664062 1.5625 -2.609375 1.6875 -2.578125 C 1.820312 -2.554688 1.96875 -2.546875 2.125 -2.546875 C 2.375 -2.546875 2.617188 -2.523438 2.859375 -2.484375 C 3.097656 -2.453125 3.316406 -2.390625 3.515625 -2.296875 C 3.710938 -2.210938 3.867188 -2.082031 3.984375 -1.90625 C 4.109375 -1.738281 4.171875 -1.523438 4.171875 -1.265625 C 4.171875 -0.941406 4.066406 -0.675781 3.859375 -0.46875 C 3.648438 -0.269531 3.382812 -0.125 3.0625 -0.03125 C 2.738281 0.0507812 2.398438 0.09375 2.046875 0.09375 Z M 2.046875 0.09375 "/></g></g></g><g fill="#ffffff" fill-opacity="1"><g transform="translate(267.157715, 225.141129)"><g><path d="M 1.5 0.015625 L -0.34375 -3.9375 L -0.34375 -4.046875 L 1.21875 -4.046875 L 1.828125 -2.6875 L 2.203125 -1.609375 L 2.96875 -3.5625 L 3.984375 -3.5625 L 4.75 -1.625 L 5.140625 -2.71875 L 5.734375 -4.046875 L 7.296875 -4.046875 L 7.296875 -3.9375 L 5.453125 0.015625 L 4.171875 0.015625 L 3.46875 -1.4375 L 2.78125 0.015625 Z M 1.5 0.015625 "/></g></g></g><g fill="#ffffff" fill-opacity="1"><g transform="translate(274.586189, 225.141129)"><g><path d="M 2.171875 0.078125 C 1.765625 0.078125 1.390625 -0.00390625 1.046875 -0.171875 C 0.710938 -0.347656 0.445312 -0.597656 0.25 -0.921875 C 0.0625 -1.242188 -0.03125 -1.625 -0.03125 -2.0625 C -0.03125 -2.40625 0.046875 -2.734375 0.203125 -3.046875 C 0.367188 -3.359375 0.613281 -3.613281 0.9375 -3.8125 C 1.257812 -4.019531 1.664062 -4.125 2.15625 -4.125 C 2.738281 -4.125 3.203125 -3.972656 3.546875 -3.671875 C 3.898438 -3.378906 4.125 -2.992188 4.21875 -2.515625 C 4.257812 -2.378906 4.273438 -2.21875 4.265625 -2.03125 C 4.265625 -1.851562 4.25 -1.695312 4.21875 -1.5625 L 1.4375 -1.5625 C 1.476562 -1.382812 1.570312 -1.253906 1.71875 -1.171875 C 1.863281 -1.085938 2.019531 -1.046875 2.1875 -1.046875 C 2.320312 -1.046875 2.453125 -1.070312 2.578125 -1.125 C 2.703125 -1.1875 2.796875 -1.273438 2.859375 -1.390625 L 4 -0.9375 C 3.820312 -0.5625 3.570312 -0.296875 3.25 -0.140625 C 2.925781 0.00390625 2.566406 0.078125 2.171875 0.078125 Z M 1.421875 -2.53125 L 2.875 -2.53125 C 2.832031 -2.695312 2.742188 -2.820312 2.609375 -2.90625 C 2.472656 -2.988281 2.328125 -3.03125 2.171875 -3.03125 C 2.015625 -3.03125 1.863281 -2.988281 1.71875 -2.90625 C 1.582031 -2.820312 1.484375 -2.695312 1.421875 -2.53125 Z M 1.421875 -2.53125 "/></g></g></g><g fill="#ffffff" fill-opacity="1"><g transform="translate(279.50734, 225.141129)"><g><path d="M 0.171875 0 L 0.171875 -4.046875 L 1.34375 -4.046875 L 1.5 -3.59375 C 1.613281 -3.789062 1.769531 -3.929688 1.96875 -4.015625 C 2.175781 -4.109375 2.394531 -4.15625 2.625 -4.15625 C 2.851562 -4.15625 3.078125 -4.109375 3.296875 -4.015625 C 3.515625 -3.921875 3.6875 -3.785156 3.8125 -3.609375 L 3.125 -2.546875 C 3.03125 -2.640625 2.921875 -2.707031 2.796875 -2.75 C 2.679688 -2.800781 2.566406 -2.828125 2.453125 -2.828125 C 2.242188 -2.828125 2.050781 -2.75 1.875 -2.59375 C 1.707031 -2.445312 1.625 -2.210938 1.625 -1.890625 L 1.625 0 Z M 0.171875 0 "/></g></g></g><g fill="#ffffff" fill-opacity="1"><g transform="translate(283.400062, 225.141129)"><g><path d="M 2.046875 0.09375 C 1.691406 0.09375 1.359375 0.046875 1.046875 -0.046875 C 0.734375 -0.148438 0.476562 -0.304688 0.28125 -0.515625 C 0.0820312 -0.734375 -0.0195312 -1.019531 -0.03125 -1.375 L 1.421875 -1.375 C 1.421875 -1.238281 1.492188 -1.140625 1.640625 -1.078125 C 1.785156 -1.015625 1.941406 -0.984375 2.109375 -0.984375 C 2.265625 -0.984375 2.398438 -1.003906 2.515625 -1.046875 C 2.628906 -1.097656 2.6875 -1.171875 2.6875 -1.265625 C 2.6875 -1.367188 2.609375 -1.429688 2.453125 -1.453125 C 2.304688 -1.484375 2.117188 -1.507812 1.890625 -1.53125 C 1.691406 -1.550781 1.484375 -1.578125 1.265625 -1.609375 C 1.046875 -1.640625 0.835938 -1.691406 0.640625 -1.765625 C 0.453125 -1.835938 0.300781 -1.953125 0.1875 -2.109375 C 0.0703125 -2.265625 0.0195312 -2.472656 0.03125 -2.734375 C 0.03125 -2.992188 0.09375 -3.210938 0.21875 -3.390625 C 0.34375 -3.578125 0.503906 -3.722656 0.703125 -3.828125 C 0.910156 -3.941406 1.128906 -4.019531 1.359375 -4.0625 C 1.597656 -4.101562 1.828125 -4.125 2.046875 -4.125 C 2.253906 -4.125 2.472656 -4.101562 2.703125 -4.0625 C 2.941406 -4.03125 3.160156 -3.960938 3.359375 -3.859375 C 3.566406 -3.765625 3.734375 -3.625 3.859375 -3.4375 C 3.984375 -3.257812 4.046875 -3.019531 4.046875 -2.71875 L 2.640625 -2.71875 C 2.640625 -2.820312 2.578125 -2.898438 2.453125 -2.953125 C 2.328125 -3.015625 2.191406 -3.046875 2.046875 -3.046875 C 1.910156 -3.046875 1.785156 -3.019531 1.671875 -2.96875 C 1.554688 -2.914062 1.5 -2.84375 1.5 -2.75 C 1.5 -2.664062 1.5625 -2.609375 1.6875 -2.578125 C 1.820312 -2.554688 1.96875 -2.546875 2.125 -2.546875 C 2.375 -2.546875 2.617188 -2.523438 2.859375 -2.484375 C 3.097656 -2.453125 3.316406 -2.390625 3.515625 -2.296875 C 3.710938 -2.210938 3.867188 -2.082031 3.984375 -1.90625 C 4.109375 -1.738281 4.171875 -1.523438 4.171875 -1.265625 C 4.171875 -0.941406 4.066406 -0.675781 3.859375 -0.46875 C 3.648438 -0.269531 3.382812 -0.125 3.0625 -0.03125 C 2.738281 0.0507812 2.398438 0.09375 2.046875 0.09375 Z M 2.046875 0.09375 "/></g></g></g><g fill="#ffffff" fill-opacity="1"><g transform="translate(207.614077, 233.640473)"><g><path d="M 0.203125 1.84375 L 0.203125 -4.046875 L 1.375 -4.046875 L 1.53125 -3.546875 C 1.65625 -3.742188 1.820312 -3.882812 2.03125 -3.96875 C 2.25 -4.050781 2.460938 -4.09375 2.671875 -4.09375 C 3.128906 -4.09375 3.507812 -3.988281 3.8125 -3.78125 C 4.125 -3.570312 4.359375 -3.304688 4.515625 -2.984375 C 4.671875 -2.671875 4.75 -2.335938 4.75 -1.984375 C 4.75 -1.648438 4.671875 -1.328125 4.515625 -1.015625 C 4.367188 -0.703125 4.148438 -0.445312 3.859375 -0.25 C 3.566406 -0.0507812 3.195312 0.046875 2.75 0.046875 C 2.570312 0.046875 2.382812 0.0195312 2.1875 -0.03125 C 2 -0.09375 1.828125 -0.207031 1.671875 -0.375 L 1.671875 1.84375 Z M 2.453125 -1.234375 C 2.722656 -1.234375 2.925781 -1.316406 3.0625 -1.484375 C 3.195312 -1.648438 3.265625 -1.828125 3.265625 -2.015625 C 3.265625 -2.203125 3.195312 -2.378906 3.0625 -2.546875 C 2.925781 -2.722656 2.722656 -2.8125 2.453125 -2.8125 C 2.203125 -2.8125 2 -2.734375 1.84375 -2.578125 C 1.695312 -2.429688 1.625 -2.25 1.625 -2.03125 C 1.625 -1.800781 1.695312 -1.609375 1.84375 -1.453125 C 1.988281 -1.304688 2.191406 -1.234375 2.453125 -1.234375 Z M 2.453125 -1.234375 "/></g></g></g><g fill="#ffffff" fill-opacity="1"><g transform="translate(213.011202, 233.640473)"><g><path d="M 0.171875 0 L 0.171875 -4.046875 L 1.34375 -4.046875 L 1.5 -3.59375 C 1.613281 -3.789062 1.769531 -3.929688 1.96875 -4.015625 C 2.175781 -4.109375 2.394531 -4.15625 2.625 -4.15625 C 2.851562 -4.15625 3.078125 -4.109375 3.296875 -4.015625 C 3.515625 -3.921875 3.6875 -3.785156 3.8125 -3.609375 L 3.125 -2.546875 C 3.03125 -2.640625 2.921875 -2.707031 2.796875 -2.75 C 2.679688 -2.800781 2.566406 -2.828125 2.453125 -2.828125 C 2.242188 -2.828125 2.050781 -2.75 1.875 -2.59375 C 1.707031 -2.445312 1.625 -2.210938 1.625 -1.890625 L 1.625 0 Z M 0.171875 0 "/></g></g></g><g fill="#ffffff" fill-opacity="1"><g transform="translate(216.903927, 233.640473)"><g><path d="M 2.171875 0.078125 C 1.765625 0.078125 1.390625 -0.00390625 1.046875 -0.171875 C 0.710938 -0.347656 0.445312 -0.597656 0.25 -0.921875 C 0.0625 -1.242188 -0.03125 -1.625 -0.03125 -2.0625 C -0.03125 -2.40625 0.046875 -2.734375 0.203125 -3.046875 C 0.367188 -3.359375 0.613281 -3.613281 0.9375 -3.8125 C 1.257812 -4.019531 1.664062 -4.125 2.15625 -4.125 C 2.738281 -4.125 3.203125 -3.972656 3.546875 -3.671875 C 3.898438 -3.378906 4.125 -2.992188 4.21875 -2.515625 C 4.257812 -2.378906 4.273438 -2.21875 4.265625 -2.03125 C 4.265625 -1.851562 4.25 -1.695312 4.21875 -1.5625 L 1.4375 -1.5625 C 1.476562 -1.382812 1.570312 -1.253906 1.71875 -1.171875 C 1.863281 -1.085938 2.019531 -1.046875 2.1875 -1.046875 C 2.320312 -1.046875 2.453125 -1.070312 2.578125 -1.125 C 2.703125 -1.1875 2.796875 -1.273438 2.859375 -1.390625 L 4 -0.9375 C 3.820312 -0.5625 3.570312 -0.296875 3.25 -0.140625 C 2.925781 0.00390625 2.566406 0.078125 2.171875 0.078125 Z M 1.421875 -2.53125 L 2.875 -2.53125 C 2.832031 -2.695312 2.742188 -2.820312 2.609375 -2.90625 C 2.472656 -2.988281 2.328125 -3.03125 2.171875 -3.03125 C 2.015625 -3.03125 1.863281 -2.988281 1.71875 -2.90625 C 1.582031 -2.820312 1.484375 -2.695312 1.421875 -2.53125 Z M 1.421875 -2.53125 "/></g></g></g><g fill="#ffffff" fill-opacity="1"><g transform="translate(221.825079, 233.640473)"><g><path d="M 2.09375 0.0625 C 1.6875 0.0625 1.316406 -0.0195312 0.984375 -0.1875 C 0.660156 -0.363281 0.40625 -0.609375 0.21875 -0.921875 C 0.03125 -1.234375 -0.0625 -1.597656 -0.0625 -2.015625 C -0.0625 -2.441406 0.0234375 -2.8125 0.203125 -3.125 C 0.378906 -3.445312 0.628906 -3.691406 0.953125 -3.859375 C 1.273438 -4.035156 1.648438 -4.125 2.078125 -4.125 C 2.617188 -4.125 3.054688 -4.007812 3.390625 -3.78125 C 3.734375 -3.550781 3.960938 -3.171875 4.078125 -2.640625 L 2.828125 -2.375 C 2.753906 -2.550781 2.65625 -2.671875 2.53125 -2.734375 C 2.40625 -2.804688 2.273438 -2.84375 2.140625 -2.84375 C 1.953125 -2.84375 1.78125 -2.769531 1.625 -2.625 C 1.476562 -2.476562 1.40625 -2.273438 1.40625 -2.015625 C 1.40625 -1.753906 1.476562 -1.550781 1.625 -1.40625 C 1.78125 -1.269531 1.953125 -1.203125 2.140625 -1.203125 C 2.285156 -1.203125 2.425781 -1.238281 2.5625 -1.3125 C 2.707031 -1.394531 2.800781 -1.53125 2.84375 -1.71875 L 4.109375 -1.5 C 4.035156 -1.101562 3.890625 -0.789062 3.671875 -0.5625 C 3.460938 -0.332031 3.21875 -0.171875 2.9375 -0.078125 C 2.664062 0.015625 2.382812 0.0625 2.09375 0.0625 Z M 2.09375 0.0625 "/></g></g></g><g fill="#ffffff" fill-opacity="1"><g transform="translate(226.397756, 233.640473)"><g><path d="M 0.109375 -4.484375 L 0.109375 -5.9375 L 1.5625 -5.9375 L 1.5625 -4.484375 Z M 0.109375 0 L 0.109375 -4.046875 L 1.5625 -4.046875 L 1.5625 0 Z M 0.109375 0 "/></g></g></g><g fill="#ffffff" fill-opacity="1"><g transform="translate(228.522605, 233.640473)"><g><path d="M 2.046875 0.09375 C 1.691406 0.09375 1.359375 0.046875 1.046875 -0.046875 C 0.734375 -0.148438 0.476562 -0.304688 0.28125 -0.515625 C 0.0820312 -0.734375 -0.0195312 -1.019531 -0.03125 -1.375 L 1.421875 -1.375 C 1.421875 -1.238281 1.492188 -1.140625 1.640625 -1.078125 C 1.785156 -1.015625 1.941406 -0.984375 2.109375 -0.984375 C 2.265625 -0.984375 2.398438 -1.003906 2.515625 -1.046875 C 2.628906 -1.097656 2.6875 -1.171875 2.6875 -1.265625 C 2.6875 -1.367188 2.609375 -1.429688 2.453125 -1.453125 C 2.304688 -1.484375 2.117188 -1.507812 1.890625 -1.53125 C 1.691406 -1.550781 1.484375 -1.578125 1.265625 -1.609375 C 1.046875 -1.640625 0.835938 -1.691406 0.640625 -1.765625 C 0.453125 -1.835938 0.300781 -1.953125 0.1875 -2.109375 C 0.0703125 -2.265625 0.0195312 -2.472656 0.03125 -2.734375 C 0.03125 -2.992188 0.09375 -3.210938 0.21875 -3.390625 C 0.34375 -3.578125 0.503906 -3.722656 0.703125 -3.828125 C 0.910156 -3.941406 1.128906 -4.019531 1.359375 -4.0625 C 1.597656 -4.101562 1.828125 -4.125 2.046875 -4.125 C 2.253906 -4.125 2.472656 -4.101562 2.703125 -4.0625 C 2.941406 -4.03125 3.160156 -3.960938 3.359375 -3.859375 C 3.566406 -3.765625 3.734375 -3.625 3.859375 -3.4375 C 3.984375 -3.257812 4.046875 -3.019531 4.046875 -2.71875 L 2.640625 -2.71875 C 2.640625 -2.820312 2.578125 -2.898438 2.453125 -2.953125 C 2.328125 -3.015625 2.191406 -3.046875 2.046875 -3.046875 C 1.910156 -3.046875 1.785156 -3.019531 1.671875 -2.96875 C 1.554688 -2.914062 1.5 -2.84375 1.5 -2.75 C 1.5 -2.664062 1.5625 -2.609375 1.6875 -2.578125 C 1.820312 -2.554688 1.96875 -2.546875 2.125 -2.546875 C 2.375 -2.546875 2.617188 -2.523438 2.859375 -2.484375 C 3.097656 -2.453125 3.316406 -2.390625 3.515625 -2.296875 C 3.710938 -2.210938 3.867188 -2.082031 3.984375 -1.90625 C 4.109375 -1.738281 4.171875 -1.523438 4.171875 -1.265625 C 4.171875 -0.941406 4.066406 -0.675781 3.859375 -0.46875 C 3.648438 -0.269531 3.382812 -0.125 3.0625 -0.03125 C 2.738281 0.0507812 2.398438 0.09375 2.046875 0.09375 Z M 2.046875 0.09375 "/></g></g></g><g fill="#ffffff" fill-opacity="1"><g transform="translate(233.214273, 233.640473)"><g><path d="M 0.109375 -4.484375 L 0.109375 -5.9375 L 1.5625 -5.9375 L 1.5625 -4.484375 Z M 0.109375 0 L 0.109375 -4.046875 L 1.5625 -4.046875 L 1.5625 0 Z M 0.109375 0 "/></g></g></g><g fill="#ffffff" fill-opacity="1"><g transform="translate(235.339123, 233.640473)"><g><path d="M 2.265625 0.0625 C 1.828125 0.0625 1.441406 -0.0234375 1.109375 -0.203125 C 0.773438 -0.378906 0.507812 -0.625 0.3125 -0.9375 C 0.113281 -1.257812 0.015625 -1.628906 0.015625 -2.046875 C 0.015625 -2.453125 0.113281 -2.8125 0.3125 -3.125 C 0.507812 -3.4375 0.773438 -3.679688 1.109375 -3.859375 C 1.441406 -4.035156 1.828125 -4.125 2.265625 -4.125 C 2.691406 -4.125 3.070312 -4.035156 3.40625 -3.859375 C 3.738281 -3.679688 4 -3.4375 4.1875 -3.125 C 4.382812 -2.8125 4.484375 -2.453125 4.484375 -2.046875 C 4.484375 -1.628906 4.382812 -1.257812 4.1875 -0.9375 C 4 -0.625 3.738281 -0.378906 3.40625 -0.203125 C 3.070312 -0.0234375 2.691406 0.0625 2.265625 0.0625 Z M 2.265625 -1.21875 C 2.484375 -1.21875 2.664062 -1.296875 2.8125 -1.453125 C 2.957031 -1.609375 3.03125 -1.804688 3.03125 -2.046875 C 3.03125 -2.273438 2.957031 -2.460938 2.8125 -2.609375 C 2.664062 -2.765625 2.484375 -2.84375 2.265625 -2.84375 C 2.035156 -2.84375 1.84375 -2.765625 1.6875 -2.609375 C 1.539062 -2.460938 1.46875 -2.273438 1.46875 -2.046875 C 1.46875 -1.804688 1.539062 -1.609375 1.6875 -1.453125 C 1.84375 -1.296875 2.035156 -1.21875 2.265625 -1.21875 Z M 2.265625 -1.21875 "/></g></g></g><g fill="#ffffff" fill-opacity="1"><g transform="translate(240.396267, 233.640473)"><g><path d="M 0.203125 0 L 0.203125 -4.046875 L 1.515625 -4.046875 L 1.671875 -3.640625 C 1.785156 -3.816406 1.9375 -3.9375 2.125 -4 C 2.3125 -4.070312 2.507812 -4.109375 2.71875 -4.109375 C 3.132812 -4.109375 3.460938 -4.019531 3.703125 -3.84375 C 3.953125 -3.675781 4.128906 -3.441406 4.234375 -3.140625 C 4.335938 -2.847656 4.390625 -2.515625 4.390625 -2.140625 L 4.390625 0 L 2.921875 0 L 2.921875 -2.15625 C 2.929688 -2.4375 2.875 -2.617188 2.75 -2.703125 C 2.625 -2.785156 2.488281 -2.832031 2.34375 -2.84375 C 2.175781 -2.832031 2.019531 -2.769531 1.875 -2.65625 C 1.738281 -2.550781 1.671875 -2.359375 1.671875 -2.078125 L 1.671875 0 Z M 0.203125 0 "/></g></g></g><g fill="#ffffff" fill-opacity="1"><g transform="translate(245.589401, 233.640473)"><g/></g></g><g fill="#ffffff" fill-opacity="1"><g transform="translate(247.748251, 233.640473)"><g><path d="M 0.171875 0 L 0.171875 -4.046875 L 1.34375 -4.046875 L 1.5 -3.59375 C 1.613281 -3.789062 1.769531 -3.929688 1.96875 -4.015625 C 2.175781 -4.109375 2.394531 -4.15625 2.625 -4.15625 C 2.851562 -4.15625 3.078125 -4.109375 3.296875 -4.015625 C 3.515625 -3.921875 3.6875 -3.785156 3.8125 -3.609375 L 3.125 -2.546875 C 3.03125 -2.640625 2.921875 -2.707031 2.796875 -2.75 C 2.679688 -2.800781 2.566406 -2.828125 2.453125 -2.828125 C 2.242188 -2.828125 2.050781 -2.75 1.875 -2.59375 C 1.707031 -2.445312 1.625 -2.210938 1.625 -1.890625 L 1.625 0 Z M 0.171875 0 "/></g></g></g><g fill="#ffffff" fill-opacity="1"><g transform="translate(251.640976, 233.640473)"><g><path d="M 2.171875 0.078125 C 1.765625 0.078125 1.390625 -0.00390625 1.046875 -0.171875 C 0.710938 -0.347656 0.445312 -0.597656 0.25 -0.921875 C 0.0625 -1.242188 -0.03125 -1.625 -0.03125 -2.0625 C -0.03125 -2.40625 0.046875 -2.734375 0.203125 -3.046875 C 0.367188 -3.359375 0.613281 -3.613281 0.9375 -3.8125 C 1.257812 -4.019531 1.664062 -4.125 2.15625 -4.125 C 2.738281 -4.125 3.203125 -3.972656 3.546875 -3.671875 C 3.898438 -3.378906 4.125 -2.992188 4.21875 -2.515625 C 4.257812 -2.378906 4.273438 -2.21875 4.265625 -2.03125 C 4.265625 -1.851562 4.25 -1.695312 4.21875 -1.5625 L 1.4375 -1.5625 C 1.476562 -1.382812 1.570312 -1.253906 1.71875 -1.171875 C 1.863281 -1.085938 2.019531 -1.046875 2.1875 -1.046875 C 2.320312 -1.046875 2.453125 -1.070312 2.578125 -1.125 C 2.703125 -1.1875 2.796875 -1.273438 2.859375 -1.390625 L 4 -0.9375 C 3.820312 -0.5625 3.570312 -0.296875 3.25 -0.140625 C 2.925781 0.00390625 2.566406 0.078125 2.171875 0.078125 Z M 1.421875 -2.53125 L 2.875 -2.53125 C 2.832031 -2.695312 2.742188 -2.820312 2.609375 -2.90625 C 2.472656 -2.988281 2.328125 -3.03125 2.171875 -3.03125 C 2.015625 -3.03125 1.863281 -2.988281 1.71875 -2.90625 C 1.582031 -2.820312 1.484375 -2.695312 1.421875 -2.53125 Z M 1.421875 -2.53125 "/></g></g></g><g fill="#ffffff" fill-opacity="1"><g transform="translate(256.562127, 233.640473)"><g><path d="M 2.0625 0.046875 C 1.601562 0.046875 1.21875 -0.0507812 0.90625 -0.25 C 0.601562 -0.445312 0.375 -0.707031 0.21875 -1.03125 C 0.0703125 -1.351562 0 -1.6875 0 -2.03125 C 0 -2.375 0.0703125 -2.703125 0.21875 -3.015625 C 0.363281 -3.328125 0.582031 -3.582031 0.875 -3.78125 C 1.164062 -3.976562 1.535156 -4.078125 1.984375 -4.078125 C 2.171875 -4.078125 2.359375 -4.046875 2.546875 -3.984375 C 2.734375 -3.921875 2.90625 -3.804688 3.0625 -3.640625 L 3.0625 -5.953125 L 4.53125 -5.953125 L 4.53125 0 L 3.359375 0 L 3.203125 -0.484375 C 3.078125 -0.285156 2.910156 -0.144531 2.703125 -0.0625 C 2.492188 0.0078125 2.28125 0.046875 2.0625 0.046875 Z M 2.28125 -1.234375 C 2.539062 -1.234375 2.742188 -1.304688 2.890625 -1.453125 C 3.035156 -1.609375 3.109375 -1.796875 3.109375 -2.015625 C 3.109375 -2.242188 3.035156 -2.429688 2.890625 -2.578125 C 2.742188 -2.734375 2.539062 -2.8125 2.28125 -2.8125 C 2.007812 -2.8125 1.804688 -2.726562 1.671875 -2.5625 C 1.535156 -2.40625 1.46875 -2.222656 1.46875 -2.015625 C 1.46875 -1.835938 1.535156 -1.660156 1.671875 -1.484375 C 1.804688 -1.316406 2.007812 -1.234375 2.28125 -1.234375 Z M 2.28125 -1.234375 "/></g></g></g><g fill="#ffffff" fill-opacity="1"><g transform="translate(261.908249, 233.640473)"><g><path d="M 2.171875 0.078125 C 1.765625 0.078125 1.390625 -0.00390625 1.046875 -0.171875 C 0.710938 -0.347656 0.445312 -0.597656 0.25 -0.921875 C 0.0625 -1.242188 -0.03125 -1.625 -0.03125 -2.0625 C -0.03125 -2.40625 0.046875 -2.734375 0.203125 -3.046875 C 0.367188 -3.359375 0.613281 -3.613281 0.9375 -3.8125 C 1.257812 -4.019531 1.664062 -4.125 2.15625 -4.125 C 2.738281 -4.125 3.203125 -3.972656 3.546875 -3.671875 C 3.898438 -3.378906 4.125 -2.992188 4.21875 -2.515625 C 4.257812 -2.378906 4.273438 -2.21875 4.265625 -2.03125 C 4.265625 -1.851562 4.25 -1.695312 4.21875 -1.5625 L 1.4375 -1.5625 C 1.476562 -1.382812 1.570312 -1.253906 1.71875 -1.171875 C 1.863281 -1.085938 2.019531 -1.046875 2.1875 -1.046875 C 2.320312 -1.046875 2.453125 -1.070312 2.578125 -1.125 C 2.703125 -1.1875 2.796875 -1.273438 2.859375 -1.390625 L 4 -0.9375 C 3.820312 -0.5625 3.570312 -0.296875 3.25 -0.140625 C 2.925781 0.00390625 2.566406 0.078125 2.171875 0.078125 Z M 1.421875 -2.53125 L 2.875 -2.53125 C 2.832031 -2.695312 2.742188 -2.820312 2.609375 -2.90625 C 2.472656 -2.988281 2.328125 -3.03125 2.171875 -3.03125 C 2.015625 -3.03125 1.863281 -2.988281 1.71875 -2.90625 C 1.582031 -2.820312 1.484375 -2.695312 1.421875 -2.53125 Z M 1.421875 -2.53125 "/></g></g></g><g fill="#ffffff" fill-opacity="1"><g transform="translate(266.8294, 233.640473)"><g><path d="M 0.4375 0 L 0.4375 -2.890625 L -0.28125 -2.890625 L -0.28125 -4.046875 L 0.4375 -4.046875 L 0.4375 -4.390625 C 0.4375 -4.765625 0.519531 -5.066406 0.6875 -5.296875 C 0.863281 -5.535156 1.085938 -5.710938 1.359375 -5.828125 C 1.628906 -5.941406 1.910156 -6 2.203125 -6 C 2.460938 -6 2.710938 -5.957031 2.953125 -5.875 C 3.203125 -5.789062 3.40625 -5.671875 3.5625 -5.515625 L 2.984375 -4.515625 C 2.929688 -4.578125 2.847656 -4.628906 2.734375 -4.671875 C 2.628906 -4.710938 2.519531 -4.734375 2.40625 -4.734375 C 2.269531 -4.734375 2.148438 -4.703125 2.046875 -4.640625 C 1.941406 -4.578125 1.890625 -4.472656 1.890625 -4.328125 L 1.890625 -4.046875 L 3.125 -4.046875 L 3.125 -2.890625 L 1.890625 -2.890625 L 1.890625 0 Z M 0.4375 0 "/></g></g></g><g fill="#ffffff" fill-opacity="1"><g transform="translate(270.501142, 233.640473)"><g><path d="M 0.109375 -4.484375 L 0.109375 -5.9375 L 1.5625 -5.9375 L 1.5625 -4.484375 Z M 0.109375 0 L 0.109375 -4.046875 L 1.5625 -4.046875 L 1.5625 0 Z M 0.109375 0 "/></g></g></g><g fill="#ffffff" fill-opacity="1"><g transform="translate(272.625989, 233.640473)"><g><path d="M 0.203125 0 L 0.203125 -4.046875 L 1.515625 -4.046875 L 1.671875 -3.640625 C 1.785156 -3.816406 1.9375 -3.9375 2.125 -4 C 2.3125 -4.070312 2.507812 -4.109375 2.71875 -4.109375 C 3.132812 -4.109375 3.460938 -4.019531 3.703125 -3.84375 C 3.953125 -3.675781 4.128906 -3.441406 4.234375 -3.140625 C 4.335938 -2.847656 4.390625 -2.515625 4.390625 -2.140625 L 4.390625 0 L 2.921875 0 L 2.921875 -2.15625 C 2.929688 -2.4375 2.875 -2.617188 2.75 -2.703125 C 2.625 -2.785156 2.488281 -2.832031 2.34375 -2.84375 C 2.175781 -2.832031 2.019531 -2.769531 1.875 -2.65625 C 1.738281 -2.550781 1.671875 -2.359375 1.671875 -2.078125 L 1.671875 0 Z M 0.203125 0 "/></g></g></g><g fill="#ffffff" fill-opacity="1"><g transform="translate(277.81912, 233.640473)"><g><path d="M 2.171875 0.078125 C 1.765625 0.078125 1.390625 -0.00390625 1.046875 -0.171875 C 0.710938 -0.347656 0.445312 -0.597656 0.25 -0.921875 C 0.0625 -1.242188 -0.03125 -1.625 -0.03125 -2.0625 C -0.03125 -2.40625 0.046875 -2.734375 0.203125 -3.046875 C 0.367188 -3.359375 0.613281 -3.613281 0.9375 -3.8125 C 1.257812 -4.019531 1.664062 -4.125 2.15625 -4.125 C 2.738281 -4.125 3.203125 -3.972656 3.546875 -3.671875 C 3.898438 -3.378906 4.125 -2.992188 4.21875 -2.515625 C 4.257812 -2.378906 4.273438 -2.21875 4.265625 -2.03125 C 4.265625 -1.851562 4.25 -1.695312 4.21875 -1.5625 L 1.4375 -1.5625 C 1.476562 -1.382812 1.570312 -1.253906 1.71875 -1.171875 C 1.863281 -1.085938 2.019531 -1.046875 2.1875 -1.046875 C 2.320312 -1.046875 2.453125 -1.070312 2.578125 -1.125 C 2.703125 -1.1875 2.796875 -1.273438 2.859375 -1.390625 L 4 -0.9375 C 3.820312 -0.5625 3.570312 -0.296875 3.25 -0.140625 C 2.925781 0.00390625 2.566406 0.078125 2.171875 0.078125 Z M 1.421875 -2.53125 L 2.875 -2.53125 C 2.832031 -2.695312 2.742188 -2.820312 2.609375 -2.90625 C 2.472656 -2.988281 2.328125 -3.03125 2.171875 -3.03125 C 2.015625 -3.03125 1.863281 -2.988281 1.71875 -2.90625 C 1.582031 -2.820312 1.484375 -2.695312 1.421875 -2.53125 Z M 1.421875 -2.53125 "/></g></g></g><g fill="#ffffff" fill-opacity="1"><g transform="translate(282.740271, 233.640473)"><g><path d="M 2.0625 0.046875 C 1.601562 0.046875 1.21875 -0.0507812 0.90625 -0.25 C 0.601562 -0.445312 0.375 -0.707031 0.21875 -1.03125 C 0.0703125 -1.351562 0 -1.6875 0 -2.03125 C 0 -2.375 0.0703125 -2.703125 0.21875 -3.015625 C 0.363281 -3.328125 0.582031 -3.582031 0.875 -3.78125 C 1.164062 -3.976562 1.535156 -4.078125 1.984375 -4.078125 C 2.171875 -4.078125 2.359375 -4.046875 2.546875 -3.984375 C 2.734375 -3.921875 2.90625 -3.804688 3.0625 -3.640625 L 3.0625 -5.953125 L 4.53125 -5.953125 L 4.53125 0 L 3.359375 0 L 3.203125 -0.484375 C 3.078125 -0.285156 2.910156 -0.144531 2.703125 -0.0625 C 2.492188 0.0078125 2.28125 0.046875 2.0625 0.046875 Z M 2.28125 -1.234375 C 2.539062 -1.234375 2.742188 -1.304688 2.890625 -1.453125 C 3.035156 -1.609375 3.109375 -1.796875 3.109375 -2.015625 C 3.109375 -2.242188 3.035156 -2.429688 2.890625 -2.578125 C 2.742188 -2.734375 2.539062 -2.8125 2.28125 -2.8125 C 2.007812 -2.8125 1.804688 -2.726562 1.671875 -2.5625 C 1.535156 -2.40625 1.46875 -2.222656 1.46875 -2.015625 C 1.46875 -1.835938 1.535156 -1.660156 1.671875 -1.484375 C 1.804688 -1.316406 2.007812 -1.234375 2.28125 -1.234375 Z M 2.28125 -1.234375 "/></g></g></g><g fill="#ffffff" fill-opacity="1"><g transform="translate(37.500002, 153.483285)"><g><path d="M 0.234375 0 L 0.234375 -8.046875 L 2.40625 -8.046875 L 2.40625 0 Z M 0.234375 0 "/></g></g></g><g fill="#ffffff" fill-opacity="1"><g transform="translate(40.534975, 153.483285)"><g><path d="M 0.375 0 L 0.375 -8.046875 L 2.1875 -8.046875 L 6.15625 -3.421875 L 6.28125 -3.265625 L 6.25 -3.5 L 6.25 -8.046875 L 8.359375 -8.046875 L 8.359375 0 L 6.40625 0 L 2.484375 -4.640625 L 2.484375 0 Z M 0.375 0 "/></g></g></g><g fill="#ffffff" fill-opacity="1"><g transform="translate(49.89282, 153.483285)"><g><path d="M 2.59375 0 L 2.59375 -6.25 L -0.28125 -6.25 L -0.28125 -8.046875 L 7.640625 -8.046875 L 7.640625 -6.25 L 4.765625 -6.25 L 4.765625 0 Z M 2.59375 0 "/></g></g></g><g fill="#ffffff" fill-opacity="1"><g transform="translate(57.836644, 153.483285)"><g><path d="M 0.328125 0 L 0.328125 -8.046875 L 6.953125 -8.046875 L 6.953125 -6.25 L 2.421875 -6.25 L 2.421875 -4.90625 L 6.765625 -4.90625 L 6.765625 -3.109375 L 2.421875 -3.109375 L 2.421875 -1.8125 L 6.953125 -1.8125 L 6.953125 0 Z M 0.328125 0 "/></g></g></g><g fill="#ffffff" fill-opacity="1"><g transform="translate(65.366604, 153.483285)"><g><path d="M 0.328125 0 L 0.328125 -8.046875 L 2.5 -8.046875 L 2.5 -1.890625 L 6.953125 -1.890625 L 6.953125 0 Z M 0.328125 0 "/></g></g></g><g fill="#ffffff" fill-opacity="1"><g transform="translate(72.701134, 153.483285)"><g><path d="M 0.328125 0 L 0.328125 -8.046875 L 2.5 -8.046875 L 2.5 -1.890625 L 6.953125 -1.890625 L 6.953125 0 Z M 0.328125 0 "/></g></g></g><g fill="#ffffff" fill-opacity="1"><g transform="translate(80.035663, 153.483285)"><g><path d="M 0.234375 0 L 0.234375 -8.046875 L 2.40625 -8.046875 L 2.40625 0 Z M 0.234375 0 "/></g></g></g></svg>